<?xml version="1.0" encoding="UTF-8" standalone="no"?>
<!-- Generator: Adobe Illustrator 18.0.0, SVG Export Plug-In . SVG Version: 6.00 Build 0)  -->

<svg
   xmlns:dc="http://purl.org/dc/elements/1.1/"
   xmlns:cc="http://creativecommons.org/ns#"
   xmlns:rdf="http://www.w3.org/1999/02/22-rdf-syntax-ns#"
   xmlns:svg="http://www.w3.org/2000/svg"
   xmlns="http://www.w3.org/2000/svg"
   xmlns:sodipodi="http://sodipodi.sourceforge.net/DTD/sodipodi-0.dtd"
   xmlns:inkscape="http://www.inkscape.org/namespaces/inkscape"
   version="1.1"
   id="Capa_1"
   x="0px"
   y="0px"
   viewBox="0 0 61.316407 61.316407"
   xml:space="preserve"
   sodipodi:docname="stopwatch.svg"
   width="61.316406"
   height="61.316406"
   inkscape:version="0.92.2 (5c3e80d, 2017-08-06)"
   inkscape:export-filename="C:\Users\Paul\Téléchargements\Zzz\Zzz.png"
   inkscape:export-xdpi="801.61255"
   inkscape:export-ydpi="801.61255"><metadata
     id="metadata971"><rdf:RDF><cc:Work
         rdf:about=""><dc:format>image/svg+xml</dc:format><dc:type
           rdf:resource="http://purl.org/dc/dcmitype/StillImage" /><dc:title></dc:title><cc:license
           rdf:resource="http://creativecommons.org/licenses/by/4.0/" /></cc:Work><cc:License
         rdf:about="http://creativecommons.org/licenses/by/4.0/"><cc:permits
           rdf:resource="http://creativecommons.org/ns#Reproduction" /><cc:permits
           rdf:resource="http://creativecommons.org/ns#Distribution" /><cc:requires
           rdf:resource="http://creativecommons.org/ns#Notice" /><cc:requires
           rdf:resource="http://creativecommons.org/ns#Attribution" /><cc:permits
           rdf:resource="http://creativecommons.org/ns#DerivativeWorks" /></cc:License></rdf:RDF></metadata><defs
     id="defs969" /><sodipodi:namedview
     pagecolor="#ffffff"
     bordercolor="#666666"
     borderopacity="1"
     objecttolerance="10"
     gridtolerance="10"
     guidetolerance="10"
     inkscape:pageopacity="0"
     inkscape:pageshadow="2"
     inkscape:window-width="1920"
     inkscape:window-height="1017"
     id="namedview967"
     showgrid="false"
     fit-margin-top="0"
     fit-margin-left="0"
     fit-margin-right="0"
     fit-margin-bottom="0"
     inkscape:zoom="1.8153794"
     inkscape:cx="56.829223"
     inkscape:cy="5.7170768"
     inkscape:window-x="-8"
     inkscape:window-y="-8"
     inkscape:window-maximized="1"
     inkscape:current-layer="g934"><inkscape:grid
       type="xygrid"
       id="grid973"
       originx="1.4634485"
       originy="1.0740075" /></sodipodi:namedview><g
     id="g934"
     transform="translate(1.4634485,1.8523997)"><circle
       style="fill:#aa0000;fill-opacity:1;stroke:none;stroke-width:1;stroke-linecap:butt;stroke-linejoin:miter;stroke-miterlimit:4;stroke-dasharray:4, 1;stroke-dashoffset:0;stroke-opacity:1"
       id="path1003"
       cx="29.018429"
       cy="29.079439"
       r="2.6291864" /><g
       id="g922"
       transform="translate(0.19475458,-0.38950909)"><circle
         style="fill:#800000"
         cx="29"
         cy="29.195"
         r="29"
         id="circle894" /><path
         sodipodi:type="inkscape:offset"
         inkscape:radius="1.6582752"
         inkscape:original="M 29 0.1953125 C 12.984 0.1953125 0 13.179312 0 29.195312 C 0 45.211312 12.984 58.195312 29 58.195312 C 45.016 58.195312 58 45.211312 58 29.195312 C 58 13.179313 45.016 0.1953125 29 0.1953125 z M 29 4.1953125 C 42.785 4.1953125 54 15.410312 54 29.195312 C 54 42.980313 42.785 54.195312 29 54.195312 C 15.215 54.195312 4 42.980313 4 29.195312 C 4 15.410312 15.215 4.1953125 29 4.1953125 z "
         style="fill:#373e48"
         id="path896"
         d="m 29,-1.4628906 c -16.912231,0 -30.6582031,13.7459726 -30.6582031,30.6582026 0,16.912231 13.7459721,30.658204 30.6582031,30.658204 16.912231,0 30.658203,-13.745973 30.658203,-30.658204 C 59.658203,12.283083 45.912231,-1.4628906 29,-1.4628906 Z m 0,7.3164062 c 12.88559,0 23.341797,10.4562074 23.341797,23.3417964 C 52.341797,42.080903 41.88559,52.537109 29,52.537109 16.11441,52.537109 5.6582031,42.080903 5.6582031,29.195312 5.6582031,16.309723 16.11441,5.8535156 29,5.8535156 Z" /><g
         id="g914"><path
           style="fill:#000000"
           d="m 29,6.073 c -0.552,0 -1,0.447 -1,1 v 1 c 0,0.553 0.448,1 1,1 0.552,0 1,-0.447 1,-1 v -1 c 0,-0.552 -0.448,-1 -1,-1 z"
           id="path898"
           inkscape:connector-curvature="0" /><path
           style="fill:#000000"
           d="m 29,49.073 c -0.552,0 -1,0.447 -1,1 v 1 c 0,0.553 0.448,1 1,1 0.552,0 1,-0.447 1,-1 v -1 c 0,-0.552 -0.448,-1 -1,-1 z"
           id="path900"
           inkscape:connector-curvature="0" /><path
           style="fill:#000000"
           d="m 51,28.073 h -1 c -0.552,0 -1,0.447 -1,1 0,0.553 0.448,1 1,1 h 1 c 0.552,0 1,-0.447 1,-1 0,-0.553 -0.448,-1 -1,-1 z"
           id="path902"
           inkscape:connector-curvature="0" /><path
           style="fill:#000000"
           d="M 8,28.073 H 7 c -0.552,0 -1,0.447 -1,1 0,0.553 0.448,1 1,1 h 1 c 0.552,0 1,-0.447 1,-1 0,-0.553 -0.448,-1 -1,-1 z"
           id="path904"
           inkscape:connector-curvature="0" /><path
           style="fill:#cccccc"
           d="m 43.849,12.81 -0.707,0.707 c -0.391,0.391 -0.391,1.023 0,1.414 0.195,0.195 0.451,0.293 0.707,0.293 0.256,0 0.512,-0.098 0.707,-0.293 l 0.707,-0.707 c 0.391,-0.391 0.391,-1.023 0,-1.414 -0.391,-0.391 -1.023,-0.391 -1.414,0 z"
           id="path906"
           inkscape:connector-curvature="0" /><path
           style="fill:#cccccc"
           d="m 13.444,43.216 -0.707,0.707 c -0.391,0.391 -0.391,1.023 0,1.414 0.195,0.195 0.451,0.293 0.707,0.293 0.256,0 0.512,-0.098 0.707,-0.293 l 0.707,-0.707 c 0.391,-0.391 0.391,-1.023 0,-1.414 -0.391,-0.391 -1.024,-0.391 -1.414,0 z"
           id="path908"
           inkscape:connector-curvature="0" /><path
           style="fill:#8697cb"
           d="m 44.556,43.216 c -0.391,-0.391 -1.023,-0.391 -1.414,0 -0.391,0.391 -0.391,1.023 0,1.414 l 0.707,0.707 c 0.195,0.195 0.451,0.293 0.707,0.293 0.256,0 0.512,-0.098 0.707,-0.293 0.391,-0.391 0.391,-1.023 0,-1.414 z"
           id="path910"
           inkscape:connector-curvature="0" /><path
           style="fill:#cccccc"
           d="m 14.151,12.81 c -0.391,-0.391 -1.023,-0.391 -1.414,0 -0.391,0.391 -0.391,1.023 0,1.414 l 0.707,0.707 c 0.195,0.195 0.451,0.293 0.707,0.293 0.256,0 0.512,-0.098 0.707,-0.293 0.391,-0.391 0.391,-1.023 0,-1.414 z"
           id="path912"
           inkscape:connector-curvature="0" /></g><path
         style="fill:#cccccc"
         d="m 26,30.074 h -8 c -0.553,0 -1,-0.447 -1,-1 0,-0.553 0.447,-1 1,-1 h 8 c 0.553,0 1,0.447 1,1 0,0.553 -0.447,1 -1,1 z"
         id="path916"
         inkscape:connector-curvature="0" /><path
         style="fill:#cccccc"
         d="m 29,27.074 c -0.553,0 -1,-0.447 -1,-1 v -11 c 0,-0.553 0.447,-1 1,-1 0.553,0 1,0.447 1,1 v 11 c 0,0.552 -0.447,1 -1,1 z"
         id="path918"
         inkscape:connector-curvature="0" /><path
         style="fill:#cccccc"
         d="m 29,33.074 c -2.206,0 -4,-1.794 -4,-4 0,-2.206 1.794,-4 4,-4 2.206,0 4,1.794 4,4 0,2.206 -1.794,4 -4,4 z m 0,-6 c -1.103,0 -2,0.897 -2,2 0,1.103 0.897,2 2,2 1.103,0 2,-0.897 2,-2 0,-1.103 -0.897,-2 -2,-2 z"
         id="path920"
         inkscape:connector-curvature="0" /></g><circle
       style="fill:#373e48;fill-opacity:1;stroke:none;stroke-width:1.16336632;stroke-linecap:butt;stroke-linejoin:miter;stroke-miterlimit:4;stroke-dasharray:4.65346533, 1.16336633;stroke-dashoffset:0;stroke-opacity:1"
       id="path1001"
       cx="48.404861"
       cy="48.019325"
       r="11.441831" /><path
       style="fill:#e6e6e6"
       d="m 48.447641,52.088654 c -0.553,0 -1.000541,-0.447 -1,-1 l 0.0059,-6.033759 c 5.41e-4,-0.552999 0.447,-1 1,-1 0.553,0 1.000541,0.447 1,1 l -0.0059,6.033759 c -5.4e-4,0.551999 -0.447,1 -1,1 z"
       id="path918-0"
       inkscape:connector-curvature="0"
       sodipodi:nodetypes="sssssss" /><path
       sodipodi:type="inkscape:offset"
       inkscape:radius="0"
       inkscape:original="M 46.302734 40.169922 C 42.232381 40.169922 38.941406 43.46255 38.941406 47.533203 C 38.941406 51.603855 42.232082 54.894531 46.302734 54.894531 C 50.373386 54.894531 53.666016 51.603556 53.666016 47.533203 C 53.666016 43.462849 50.373087 40.169922 46.302734 40.169922 z M 46.302734 42.248047 C 49.206949 42.248047 51.585938 44.629587 51.585938 47.533203 C 51.585938 50.436819 49.206351 52.816406 46.302734 52.816406 C 43.399118 52.816406 41.019531 50.436819 41.019531 47.533203 C 41.019531 44.629587 43.39852 42.248047 46.302734 42.248047 z "
       style="fill:#e6e6e6;stroke-width:2.10766649"
       id="path920-6"
       d="m 46.302734,40.169922 c -4.070353,0 -7.361328,3.292628 -7.361328,7.363281 0,4.070652 3.290676,7.361328 7.361328,7.361328 4.070652,0 7.363282,-3.290975 7.363282,-7.361328 0,-4.070354 -3.292929,-7.363281 -7.363282,-7.363281 z m 0,2.078125 c 2.904215,0 5.283204,2.38154 5.283204,5.285156 0,2.903616 -2.379587,5.283203 -5.283204,5.283203 -2.903616,0 -5.283203,-2.379587 -5.283203,-5.283203 0,-2.903616 2.378989,-5.285156 5.283203,-5.285156 z"
       transform="translate(2.2052492,0.46916564)" /></g><g
     id="g936"
     transform="translate(1.4634485,1.8523997)" /><g
     id="g938"
     transform="translate(1.4634485,1.8523997)" /><g
     id="g940"
     transform="translate(1.4634485,1.8523997)" /><g
     id="g942"
     transform="translate(1.4634485,1.8523997)" /><g
     id="g944"
     transform="translate(1.4634485,1.8523997)" /><g
     id="g946"
     transform="translate(1.4634485,1.8523997)" /><g
     id="g948"
     transform="translate(1.4634485,1.8523997)" /><g
     id="g950"
     transform="translate(1.4634485,1.8523997)" /><g
     id="g952"
     transform="translate(1.4634485,1.8523997)" /><g
     id="g954"
     transform="translate(1.4634485,1.8523997)" /><g
     id="g956"
     transform="translate(1.4634485,1.8523997)" /><g
     id="g958"
     transform="translate(1.4634485,1.8523997)" /><g
     id="g960"
     transform="translate(1.4634485,1.8523997)" /><g
     id="g962"
     transform="translate(1.4634485,1.8523997)" /><g
     id="g964"
     transform="translate(1.4634485,1.8523997)" /></svg>